<svg width="24" height="24" viewBox="0 0 24 24" fill="none" xmlns="http://www.w3.org/2000/svg">
<path d="M12 7C10.324 7.00082 8.68271 7.47707 7.26663 8.37345C5.85055 9.26984 4.71782 10.5496 4 12.064C4.71716 13.579 5.84974 14.8591 7.26596 15.7556C8.6822 16.6521 10.3239 17.128 12 17.128C13.6761 17.128 15.3178 16.6521 16.734 15.7556C18.1502 14.8591 19.2828 13.579 20 12.064C19.2822 10.5496 18.1495 9.26984 16.7334 8.37345C15.3172 7.47707 13.676 7.00082 12 7ZM12 15.7553C10.6981 15.7497 9.41981 15.4067 8.28998 14.7598C7.16015 14.1128 6.21735 13.184 5.55357 12.064C6.21311 10.9402 7.15498 10.0084 8.28576 9.36085C9.41654 8.71336 10.697 8.37272 12 8.37272C13.303 8.37272 14.5834 8.71336 15.7142 9.36085C16.845 10.0084 17.7869 10.9402 18.4464 12.064C17.7826 13.184 16.8398 14.1128 15.71 14.7598C14.5801 15.4067 13.3019 15.7497 12 15.7553ZM12 9.54916C11.5026 9.54916 11.0164 9.69665 10.6028 9.97299C10.1892 10.2493 9.86691 10.6421 9.67657 11.1017C9.48623 11.5611 9.43642 12.0668 9.53346 12.5546C9.6305 13.0424 9.87001 13.4906 10.2217 13.8423C10.5734 14.194 11.0215 14.4335 11.5094 14.5305C11.9972 14.6276 12.5028 14.5778 12.9624 14.3874C13.4219 14.1971 13.8147 13.8748 14.091 13.4612C14.3673 13.0476 14.5149 12.5614 14.5149 12.064C14.5149 11.397 14.2499 10.7574 13.7782 10.2857C13.3066 9.81412 12.667 9.54916 12 9.54916ZM12 13.2062C11.7741 13.2062 11.5532 13.1392 11.3654 13.0137C11.1776 12.8882 11.0312 12.7098 10.9447 12.5011C10.8583 12.2924 10.8357 12.0627 10.8797 11.8412C10.9238 11.6196 11.0326 11.4161 11.1923 11.2563C11.3521 11.0966 11.5556 10.9879 11.7772 10.9438C11.9987 10.8997 12.2284 10.9223 12.4371 11.0088C12.6458 11.0952 12.8242 11.2416 12.9497 11.4294C13.0752 11.6173 13.1422 11.8381 13.1422 12.064C13.1418 12.3668 13.0214 12.6571 12.8073 12.8713C12.5931 13.0854 12.3028 13.2059 12 13.2062Z" fill="#9A9A9A"/>
</svg>
