<svg width="24" height="24" viewBox="0 0 24 24" fill="none" xmlns="http://www.w3.org/2000/svg">
<path d="M19.501 21.0001H21.001V12.0001H19.501V21.0001ZM15.001 21.0001H16.501V15.0001H15.001V21.0001ZM6.50097 12.0001C5.61095 12.0001 4.74092 12.264 4.0009 12.7585C3.26088 13.253 2.6841 13.9558 2.34351 14.7781C2.00291 15.6003 1.9138 16.5051 2.08743 17.378C2.26107 18.251 2.68965 19.0528 3.31898 19.6821C3.94832 20.3114 4.75014 20.74 5.62306 20.9137C6.49597 21.0873 7.40077 20.9982 8.22304 20.6576C9.04531 20.317 9.74811 19.7402 10.2426 19.0002C10.7371 18.2602 11.001 17.3901 11.001 16.5001C11.001 15.3067 10.5269 14.1621 9.68295 13.3181C8.83903 12.4742 7.69444 12.0001 6.50097 12.0001ZM6.50097 19.5001C6.00686 19.5005 5.52033 19.3787 5.08466 19.1456C4.64898 18.9126 4.27768 18.5754 4.00377 18.1642C3.72986 17.753 3.56184 17.2804 3.51466 16.7886C3.46749 16.2967 3.54262 15.8008 3.73337 15.345L6.50097 16.5001V13.5001C7.29661 13.5001 8.05968 13.8162 8.62229 14.3788C9.1849 14.9414 9.50097 15.7045 9.50097 16.5001C9.50097 17.2958 9.1849 18.0588 8.62229 18.6215C8.05968 19.1841 7.29661 19.5001 6.50097 19.5001ZM20.1602 3.44829L14.5567 8.60559L8.44526 2.98059L1.82617 9.07329L2.84177 10.1769L8.44526 5.02009L14.5567 10.6451L21.1758 4.55239L20.1602 3.44829Z" fill="#9A9A9A"/>
</svg>
