<svg width="16" height="11" viewBox="0 0 16 11" fill="none" xmlns="http://www.w3.org/2000/svg">
<path d="M8.00002 0C6.32404 0.000816731 4.68271 0.477074 3.26663 1.37345C1.85055 2.26984 0.717817 3.54957 0 5.06402C0.717158 6.57895 1.84974 7.85909 3.26596 8.75558C4.6822 9.65206 6.32387 10.128 8.00002 10.128C9.6761 10.128 11.3178 9.65206 12.734 8.75558C14.1502 7.85909 15.2828 6.57895 16 5.06402C15.2822 3.54957 14.1495 2.26984 12.7334 1.37345C11.3172 0.477074 9.67596 0.000816731 8.00002 0ZM8.00002 8.7553C6.69805 8.74974 5.41981 8.40671 4.28998 7.75978C3.16015 7.11285 2.21735 6.18404 1.55357 5.06402C2.21311 3.94023 3.15498 3.00836 4.28576 2.36085C5.41654 1.71336 6.69695 1.37272 8.00002 1.37272C9.30301 1.37272 10.5834 1.71336 11.7142 2.36085C12.845 3.00836 13.7869 3.94023 14.4464 5.06402C13.7826 6.18404 12.8398 7.11285 11.71 7.75978C10.5801 8.40671 9.30191 8.74974 8.00002 8.7553ZM8.00002 2.54916C7.50257 2.54916 7.01637 2.69665 6.60281 2.97299C6.18925 3.24933 5.86691 3.64209 5.67657 4.10165C5.48623 4.56115 5.43642 5.06677 5.53346 5.55461C5.6305 6.04245 5.87001 6.49055 6.22172 6.8423C6.57343 7.19397 7.02152 7.4335 7.50936 7.53055C7.9972 7.62759 8.50282 7.57777 8.96239 7.38745C9.42188 7.19706 9.81467 6.87476 10.091 6.46118C10.3673 6.0476 10.5149 5.5614 10.5149 5.06402C10.5149 4.39705 10.2499 3.75739 9.77823 3.28574C9.30665 2.81412 8.66699 2.54916 8.00002 2.54916ZM8.00002 6.20621C7.77408 6.20621 7.55322 6.13922 7.36544 6.01369C7.17759 5.88816 7.0312 5.70979 6.94472 5.50107C6.85831 5.29243 6.83566 5.06272 6.87972 4.84117C6.92378 4.61962 7.03257 4.41613 7.19235 4.25635C7.35205 4.09664 7.55562 3.98786 7.77717 3.94379C7.99871 3.89966 8.22836 3.92231 8.43707 4.00879C8.64578 4.0952 8.82416 4.24159 8.94969 4.42944C9.07515 4.61729 9.1422 4.83808 9.1422 5.06402C9.14179 5.36683 9.02141 5.65715 8.80728 5.87128C8.59314 6.08541 8.30283 6.20586 8.00002 6.20621Z" fill="#9A9A9A"/>
</svg>
