<svg width="20" height="20" viewBox="0 0 20 20" fill="none" xmlns="http://www.w3.org/2000/svg">
<path d="M13.7776 11.022L11.7397 13.06C9.67064 12.0098 7.98939 10.3285 6.93914 8.25942L8.97723 6.2215L6.54955 1.57983L4.2023 2.33033C3.32362 2.60188 2.57713 3.19013 2.10765 3.98097C1.63819 4.7718 1.4792 5.70883 1.66155 6.61025C2.29184 9.48071 3.73339 12.1096 5.81472 14.1845C7.88949 16.2657 10.5185 17.7073 13.3889 18.3376C14.2903 18.52 15.2273 18.361 16.0181 17.8915C16.809 17.422 17.3972 16.6755 17.6688 15.7969L18.4193 13.4496L13.7776 11.022ZM16.4781 15.4161C16.3002 15.9974 15.9139 16.4925 15.3933 16.8063C14.8727 17.1202 14.2546 17.2307 13.6575 17.1167C11.0218 16.5333 8.60756 15.2093 6.69869 13.3005C4.78987 11.3916 3.46588 8.97738 2.88247 6.34167C2.76837 5.74454 2.87886 5.12632 3.19273 4.60568C3.5066 4.08505 4.00173 3.69871 4.58305 3.52083L5.92872 3.0905L7.44422 5.98667L6.05539 7.37542L5.4123 8.01842L5.82605 8.82821C6.99603 11.1314 8.86773 13.0031 11.171 14.1731L11.9807 14.5869L12.6237 13.9438L14.0125 12.555L16.9085 14.0705L16.4781 15.4161ZM13.5408 8.33333H14.7908C14.7898 7.50483 14.4603 6.71054 13.8745 6.1247C13.2886 5.53886 12.4943 5.20931 11.6658 5.20833V6.45833C12.1629 6.45895 12.6395 6.65669 12.991 7.00819C13.3425 7.35969 13.5401 7.83624 13.5408 8.33333ZM16.8741 8.33333H18.1241C18.1222 6.62107 17.4411 4.97948 16.2304 3.76873C15.0196 2.55797 13.3781 1.87692 11.6658 1.875V3.125C13.0466 3.12654 14.3706 3.67578 15.347 4.65219C16.3234 5.62861 16.8726 6.95248 16.8741 8.33333Z" fill="#9A9A9A"/>
</svg>
