<svg width="14" height="14" viewBox="0 0 14 14" fill="none" xmlns="http://www.w3.org/2000/svg">
<path d="M6.66667 0C5.34813 0 4.05919 0.390993 2.96287 1.12353C1.86654 1.85608 1.01206 2.89727 0.507474 4.11545C0.00288717 5.3336 -0.129133 6.67407 0.128101 7.96727C0.385334 9.26047 1.02027 10.4483 1.95263 11.3807C2.88497 12.3131 4.07286 12.948 5.36607 13.2053C6.65927 13.4625 7.99973 13.3305 9.21787 12.8259C10.4361 12.3213 11.4773 11.4668 12.2098 10.3705C12.9423 9.27413 13.3333 7.9852 13.3333 6.66667C13.3333 5.7912 13.1609 4.92428 12.8259 4.11545C12.4909 3.30661 11.9998 2.57168 11.3807 1.95262C10.7617 1.33357 10.0267 0.8425 9.21787 0.507467C8.40907 0.17244 7.54213 0 6.66667 0ZM6.66667 12.3333C5.54593 12.3333 4.45032 12.001 3.51844 11.3783C2.58656 10.7557 1.86025 9.87067 1.43135 8.8352C1.00245 7.79973 0.890241 6.6604 1.10889 5.56113C1.32753 4.46193 1.86723 3.45223 2.65973 2.65973C3.45223 1.86723 4.46193 1.32753 5.56113 1.10889C6.6604 0.890233 7.79973 1.00245 8.8352 1.43135C9.87067 1.86025 10.7557 2.58656 11.3783 3.51843C12.001 4.45031 12.3333 5.54593 12.3333 6.66667C12.3316 8.169 11.734 9.60933 10.6717 10.6717C9.60933 11.734 8.169 12.3316 6.66667 12.3333ZM6.58627 8.79513C6.4654 8.79513 6.34727 8.831 6.24673 8.89813C6.14627 8.96527 6.06793 9.06073 6.02167 9.1724C5.9754 9.28407 5.96327 9.40693 5.98687 9.52547C6.01047 9.64407 6.06867 9.75293 6.15413 9.8384C6.2396 9.92387 6.34847 9.98207 6.46707 10.0057C6.5856 10.0293 6.70847 10.0171 6.82013 9.97087C6.9318 9.9246 7.02727 9.84627 7.0944 9.7458C7.16153 9.64527 7.1974 9.52713 7.1974 9.40627C7.1974 9.2442 7.133 9.08873 7.0184 8.97413C6.9038 8.85953 6.74833 8.79513 6.58627 8.79513ZM6.7596 3.3164C5.71667 3.3164 4.66393 4.03907 4.66393 5.65367H5.62C5.62 4.407 6.41687 4.27213 6.76 4.27213C7.02807 4.25075 7.29393 4.33443 7.50147 4.50548C7.709 4.67654 7.84187 4.92157 7.872 5.1888C7.872 5.63347 7.6806 5.78253 7.24833 6.07813C6.89913 6.26033 6.60773 6.5364 6.40687 6.87527C6.20607 7.21407 6.1038 7.60227 6.1116 7.99607H7.06733C7.06733 7.35873 7.354 7.16273 7.78673 6.8672C8.0972 6.70947 8.35847 6.46953 8.542 6.1736C8.72553 5.87767 8.8244 5.537 8.82773 5.1888C8.79987 4.66701 8.56693 4.17739 8.1796 3.82665C7.79227 3.47591 7.282 3.29251 6.76 3.3164H6.7596Z" fill="#9A9A9A"/>
</svg>
