<svg width="18" height="21" viewBox="0 0 18 21" fill="none" xmlns="http://www.w3.org/2000/svg">
<path d="M18 4H13V2C13 1.46957 12.7893 0.96086 12.4142 0.58579C12.0391 0.21071 11.5304 0 11 0H7C6.46957 0 5.96086 0.21071 5.58579 0.58579C5.21071 0.96086 5 1.46957 5 2V4H0V5.5H1.8647L3.2647 21H14.7347L16.1347 5.5H18V4ZM6.5 2C6.50016 1.86744 6.55289 1.74036 6.64662 1.64662C6.74036 1.55289 6.86744 1.50016 7 1.5H11C11.1326 1.50016 11.2596 1.55289 11.3534 1.64662C11.4471 1.74036 11.4998 1.86744 11.5 2V4H6.5V2ZM13.3645 19.5H4.6355L3.3708 5.5H14.6293L13.3645 19.5Z" fill="#9A9A9A"/>
</svg>
