<svg width="20" height="20" viewBox="0 0 20 20" fill="none" xmlns="http://www.w3.org/2000/svg">
<path d="M2 18L3.13085 13.8935C2.43171 12.6882 2.06495 11.3232 2.06877 9.92776C2.06877 5.55513 5.6447 2 10.0344 2C12.1662 2 14.1681 2.82509 15.6695 4.32319C17.1748 5.82129 18.0038 7.81369 18 9.93156C18 14.3042 14.4241 17.8593 10.0306 17.8593H10.0267C8.6934 17.8593 7.383 17.5247 6.21776 16.8935L2 18ZM6.42024 15.4601L6.66093 15.6046C7.67717 16.2053 8.8424 16.5209 10.0306 16.5247H10.0344C13.6829 16.5247 16.6552 13.5703 16.6552 9.93536C16.6552 8.1749 15.9675 6.52091 14.7182 5.27376C13.4689 4.02662 11.8032 3.34221 10.0344 3.34221C6.38586 3.3384 3.41356 6.29278 3.41356 9.92776C3.41356 11.1711 3.76122 12.384 4.42598 13.4335L4.58261 13.6844L3.91404 16.1141L6.42024 15.4601Z" fill="#9A9A9A"/>
<path fill-rule="evenodd" clip-rule="evenodd" d="M8.04388 6.61217C7.89488 6.28137 7.73824 6.27377 7.59689 6.26996C7.48228 6.26616 7.34856 6.26616 7.21484 6.26616C7.08113 6.26616 6.86718 6.31559 6.6838 6.51331C6.50042 6.71103 5.98848 7.19012 5.98848 8.1673C5.98848 9.14069 6.70291 10.0837 6.80224 10.2167C6.90157 10.3498 8.18141 12.4144 10.2024 13.2091C11.8834 13.8707 12.2273 13.7376 12.5902 13.7034C12.9531 13.6692 13.7669 13.2243 13.935 12.7605C14.0993 12.2966 14.0993 11.9011 14.0496 11.8175C13.9999 11.7338 13.8662 11.6844 13.6676 11.5856C13.4689 11.4867 12.4909 11.0076 12.3075 10.9392C12.1241 10.8745 11.9904 10.8403 11.8605 11.038C11.7268 11.2357 11.3447 11.6806 11.2301 11.8137C11.1155 11.9468 10.9971 11.962 10.7984 11.8631C10.5998 11.7643 9.95792 11.5551 9.19765 10.8783C8.60548 10.3536 8.20434 9.70342 8.08972 9.5057C7.97511 9.30799 8.07826 9.20152 8.17759 9.10266C8.26546 9.01521 8.37626 8.87072 8.47559 8.75666C8.57492 8.64259 8.6093 8.55894 8.67425 8.42586C8.7392 8.29278 8.70863 8.17871 8.65897 8.07985C8.6093 7.98479 8.21962 7.0038 8.04388 6.61217Z" fill="#9A9A9A"/>
</svg>
